<svg xmlns="http://www.w3.org/2000/svg" viewBox="0 0 100 100">
  <defs>
    <linearGradient id="grad" x1="0%" y1="0%" x2="100%" y2="100%">
      <stop offset="0%" style="stop-color:#1dbf73;stop-opacity:1" />
      <stop offset="100%" style="stop-color:#0f8a50;stop-opacity:1" />
    </linearGradient>
    <filter id="shadow" x="-20%" y="-20%" width="140%" height="140%">
      <feDropShadow dx="0" dy="2" stdDeviation="3" flood-color="#000000" flood-opacity="0.2"/>
    </filter>
  </defs>
  <!-- Background Shape -->
  <rect width="100" height="100" rx="25" fill="url(#grad)" />
  
  <!-- Stylized F -->
  <path d="M 32 24 h 38 c 4 0 6 2 6 6 v 8 c 0 4 -2 6 -6 6 h -18 v 10 h 12 c 4 0 6 2 6 6 v 8 c 0 4 -2 6 -6 6 h -12 v 12 c 0 4 -2 6 -6 6 h -8 c -4 0 -6 -2 -6 -6 V 30 c 0 -4 2 -6 6 -6 z" fill="#ffffff" filter="url(#shadow)" />
</svg>